<svg width="24" height="24" viewBox="0 0 24 24" fill="none" xmlns="http://www.w3.org/2000/svg"><rect width="24" height="24" fill="none" rx="0" ry="0"></rect><path fill-rule="evenodd" clip-rule="evenodd" d="M7.28995 15.7101C7.48995 15.9001 7.73995 16.0001 7.99995 16.0001C8.25995 16.0001 8.50995 15.9001 8.70995 15.7001C9.09995 15.3101 9.09995 14.6801 8.70995 14.2901L5.70995 11.2901C5.38354 10.9637 4.88903 10.9104 4.5078 11.1304C4.4118 11.1851 4.3256 11.2552 4.25265 11.3374L1.29995 14.2901C0.909946 14.6801 0.909946 15.3101 1.29995 15.7001C1.68995 16.0901 2.31995 16.0901 2.70995 15.7001L4 14.41V17C4 18.65 5.35 20 7 20H17C18.65 20 20 18.65 20 17V16C20 15.45 19.55 15 19 15C18.45 15 18 15.45 18 16V17C18 17.55 17.55 18 17 18H7C6.45 18 6 17.55 6 17V14.4145L7.28995 15.7101Z" fill="#477eb0"></path><path fill-rule="evenodd" clip-rule="evenodd" d="M19.4726 12.8805C19.3279 12.9593 19.166 13.0001 19.0001 13.0001C18.7401 13.0001 18.4901 12.9001 18.2901 12.7101L15.2901 9.71007C14.9001 9.32007 14.9001 8.69007 15.2901 8.30007C15.6801 7.91007 16.3101 7.91007 16.7001 8.30007L18 9.59436V7C18 6.45 17.55 6 17 6H7C6.45 6 6 6.45 6 7V8C6 8.55 5.55 9 5 9C4.45 9 4 8.55 4 8V7C4 5.35 5.35 4 7 4H17C18.65 4 20 5.35 20 7V9.59013L21.2901 8.30007C21.6801 7.91007 22.3101 7.91007 22.7001 8.30007C23.0901 8.69007 23.0901 9.32007 22.7001 9.71007L19.7463 12.6638C19.6686 12.751 19.576 12.8246 19.4726 12.8805Z" fill="#ffffff"></path><path fill-rule="evenodd" clip-rule="evenodd" d="M18.2901 12.7103C18.4901 12.9003 18.7401 13.0003 19.0001 13.0003C19.2601 13.0003 19.5101 12.9003 19.7001 12.7103L22.7001 9.71031C23.0901 9.32031 23.0901 8.69031 22.7001 8.30031C22.3101 7.91031 21.6801 7.91031 21.2901 8.30031L19.0001 10.5903L16.7001 8.30031C16.3101 7.91031 15.6801 7.91031 15.2901 8.30031C14.9001 8.69031 14.9001 9.32031 15.2901 9.71031L18.2901 12.7103ZM7.28995 15.7103C7.48995 15.9003 7.73995 16.0003 7.99995 16.0003C8.25995 16.0003 8.50995 15.9003 8.70995 15.7003C9.09995 15.3103 9.09995 14.6803 8.70995 14.2903L5.70995 11.2903C5.31995 10.9003 4.68995 10.9003 4.29995 11.2903L1.29995 14.2903C0.909946 14.6803 0.909946 15.3103 1.29995 15.7003C1.68995 16.0903 2.31995 16.0903 2.70995 15.7003L4.99995 13.4103L7.28995 15.7103Z" fill="black" fill-opacity="0.2"></path></svg>